<svg xmlns="http://www.w3.org/2000/svg" width="256" height="256" viewBox="0 0 256 256"><path d="M 119.4 196.8 H 50.60000000000001 V 59.2 H 155.95 V 121.55" stroke="#367CFF" stroke-width="8.6" fill="none" opacity="1" stroke-linecap="round" stroke-linejoin="round"/><circle cx="100.05" cy="91.45" r="21.5" fill="none" stroke="#367CFF" stroke-width="6.02" opacity="1"/><text x="100.05" y="106.5" font-family="DejaVu Sans" font-size="38.699999999999996" font-weight="700" fill="#367CFF" text-anchor="middle" letter-spacing="0">$</text><path d="M 67.80000000000001 130.15 L 76.4 138.75 L 91.45 121.55 M 104.35 132.3 H 119.4 M 67.80000000000001 158.1 L 76.4 166.7 L 91.45 149.5 M 104.35 160.25 H 119.4" stroke="#367CFF" stroke-width="5.159999999999999" fill="none" opacity="1" stroke-linecap="round" stroke-linejoin="round"/><rect x="119.4" y="121.55" width="86.0" height="88.14999999999999" rx="8.6" fill="none" stroke="#367CFF" stroke-width="8.6" opacity="1"/><rect x="132.3" y="134.45" width="60.199999999999996" height="17.2" rx="4.3" fill="none" stroke="#367CFF" stroke-width="5.159999999999999" opacity="1"/><rect x="130.15" y="155.95" width="12.899999999999999" height="12.899999999999999" rx="2.15" fill="none" stroke="#367CFF" stroke-width="4.3" opacity="1"/><rect x="130.15" y="179.6" width="12.899999999999999" height="12.899999999999999" rx="2.15" fill="none" stroke="#367CFF" stroke-width="4.3" opacity="1"/><rect x="153.8" y="155.95" width="12.899999999999999" height="12.899999999999999" rx="2.15" fill="none" stroke="#367CFF" stroke-width="4.3" opacity="1"/><rect x="153.8" y="179.6" width="12.899999999999999" height="12.899999999999999" rx="2.15" fill="none" stroke="#367CFF" stroke-width="4.3" opacity="1"/><rect x="177.45" y="155.95" width="12.899999999999999" height="12.899999999999999" rx="2.15" fill="none" stroke="#367CFF" stroke-width="4.3" opacity="1"/><rect x="177.45" y="179.6" width="12.899999999999999" height="12.899999999999999" rx="2.15" fill="none" stroke="#367CFF" stroke-width="4.3" opacity="1"/></svg>