<svg xmlns="http://www.w3.org/2000/svg" width="650" height="300" viewBox="0 0 650 300"><ellipse cx="145" cy="150" rx="120.9" ry="53.82" fill="none" stroke="#E350EA" stroke-width="2.4960000000000004" opacity="1" transform="rotate(-8 145 150)" stroke-linecap="round"/><ellipse cx="145" cy="150" rx="117.78" ry="51.480000000000004" fill="none" stroke="#8A62FF" stroke-width="2.4960000000000004" opacity="1" transform="rotate(36 145 150)" stroke-linecap="round"/><ellipse cx="145" cy="150" rx="113.88000000000001" ry="49.14" fill="none" stroke="#5E82FF" stroke-width="2.4960000000000004" opacity="1" transform="rotate(78 145 150)" stroke-linecap="round"/><ellipse cx="145" cy="150" rx="110.76" ry="46.800000000000004" fill="none" stroke="#8A62FF" stroke-width="2.4960000000000004" opacity="1" transform="rotate(121 145 150)" stroke-linecap="round"/><circle cx="250.50046180186814" cy="163.97341671021536" r="6.24" fill="#E350EA" stroke="#090A20" stroke-width="0.78" opacity="1"/><circle cx="46.99102380989072" cy="109.64209432735743" r="5.46" fill="#8A62FF" stroke="#090A20" stroke-width="0.78" opacity="1"/><circle cx="157.75871898842837" cy="58.10197974977731" r="5.46" fill="#5E82FF" stroke="#090A20" stroke-width="0.78" opacity="1"/><circle cx="157.24840672154804" cy="211.96875971058665" r="4.68" fill="#8A62FF" stroke="#090A20" stroke-width="0.78" opacity="1"/><path d="M671 439Q673 411 673 349Q673 288 671 261Q667 185 629.5 123.5Q592 62 523.0 26.0Q454 -10 359 -10Q264 -10 195.0 26.0Q126 62 88.5 123.5Q51 185 47 261Q45 315 45 349Q45 383 47 439Q51 515 88.5 576.5Q126 638 195.0 674.0Q264 710 359 710Q454 710 523.0 674.0Q592 638 629.5 576.5Q667 515 671 439ZM359 550Q300 550 268.5 518.5Q237 487 232 434Q229 401 229 351Q229 302 232 266Q237 213 268.5 181.5Q300 150 359 150Q418 150 449.5 181.5Q481 213 486 266Q489 302 489 351Q489 401 486 434Q481 487 449.5 518.5Q418 550 359 550ZM410 910H553Q562 910 567.0 904.5Q572 899 572 890Q572 883 567 878L432 767Q421 758 412.5 754.0Q404 750 390 750H292Q276 750 276 766Q276 774 281 779L373 891Q384 903 391.0 906.5Q398 910 410 910Z" fill="#090A20" transform="translate(285.000 179.000) scale(0.08200000 -0.08200000)"/><path d="M650 471Q650 326 531 271L655 33Q658 27 658 22Q658 13 651.5 6.5Q645 0 636 0H500Q482 0 473.0 7.5Q464 15 458 27L347 241H255V27Q255 16 247.0 8.0Q239 0 228 0H97Q86 0 78.0 8.0Q70 16 70 27V673Q70 684 78.0 692.0Q86 700 97 700H368Q502 700 576.0 642.5Q650 585 650 471ZM368 397Q465 397 465 471Q465 545 368 545H255V397Z" fill="#090A20" transform="translate(348.876 179.000) scale(0.08200000 -0.08200000)"/><path d="M70 27V673Q70 684 78.0 692.0Q86 700 97 700H419Q504 700 557.0 670.0Q610 640 633.5 593.5Q657 547 657 492Q657 442 639.5 411.5Q622 381 601 365Q639 339 655.0 303.5Q671 268 671 217Q671 124 615.0 62.0Q559 0 440 0H97Q86 0 78.0 8.0Q70 16 70 27ZM255 545V431H410Q440 431 455.5 446.0Q471 461 471 488Q471 515 455.5 530.0Q440 545 410 545ZM420 155Q450 155 468.0 172.0Q486 189 486 216Q486 243 468.0 260.0Q450 277 420 277H255V155Z" fill="#090A20" transform="translate(410.866 179.000) scale(0.08200000 -0.08200000)"/><path d="M70 27V673Q70 684 78.0 692.0Q86 700 97 700H228Q239 700 247.0 692.0Q255 684 255 673V27Q255 16 247.0 8.0Q239 0 228 0H97Q86 0 78.0 8.0Q70 16 70 27Z" fill="#090A20" transform="translate(474.250 179.000) scale(0.08200000 -0.08200000)"/><path d="M611 673V567Q611 556 603.0 548.0Q595 540 584 540H408V27Q408 16 400.0 8.0Q392 0 381 0H250Q239 0 231.0 8.0Q223 16 223 27V540H47Q36 540 28.0 548.0Q20 556 20 567V673Q20 684 28.0 692.0Q36 700 47 700H584Q595 700 603.0 692.0Q611 684 611 673Z" fill="#090A20" transform="translate(505.900 179.000) scale(0.08200000 -0.08200000)"/><path d="M703 37Q707 27 707 22Q707 13 700.5 6.5Q694 0 685 0H559Q542 0 532.5 7.5Q523 15 520 25L492 108H226L198 25Q195 15 185.5 7.5Q176 0 159 0H33Q24 0 17.5 6.5Q11 13 11 22Q11 27 15 37L233 667Q238 681 249.0 690.5Q260 700 278 700H440Q458 700 469.0 690.5Q480 681 485 667ZM440 263 359 503 278 263Z" fill="#090A20" transform="translate(562.642 179.000) scale(0.08200000 -0.08200000)"/></svg>